<svg xmlns="http://www.w3.org/2000/svg" width="1400" height="460" viewBox="0 0 1400 460" role="img" aria-labelledby="title desc" font-family="Plus Jakarta Sans, Segoe UI, sans-serif">
  <title id="title">Sovereign Conclave Advanced Blueprint</title>
  <desc id="desc">A highly detailed, futuristic HUD visualization of the Sovereign Conclave deliberation protocol.</desc>

  <defs>
    <!-- Backgrounds -->
    <linearGradient id="bg-grad" x1="0%" y1="0%" x2="100%" y2="100%">
      <stop offset="0%" stop-color="#02040A" />
      <stop offset="40%" stop-color="#060C18" />
      <stop offset="100%" stop-color="#0B1325" />
    </linearGradient>

    <!-- Glowing Accents -->
    <linearGradient id="cyan-glow" x1="0%" y1="0%" x2="100%" y2="0%">
      <stop offset="0%" stop-color="#00F2FE" />
      <stop offset="100%" stop-color="#4FACFE" />
    </linearGradient>

    <linearGradient id="gold-glow" x1="0%" y1="0%" x2="100%" y2="100%">
      <stop offset="0%" stop-color="#F5D37A" />
      <stop offset="52%" stop-color="#D4AF37" />
      <stop offset="100%" stop-color="#B8822D" />
    </linearGradient>

    <linearGradient id="emerald-glow" x1="0%" y1="0%" x2="100%" y2="100%">
      <stop offset="0%" stop-color="#10B981" />
      <stop offset="100%" stop-color="#059669" />
    </linearGradient>

    <linearGradient id="magenta-glow" x1="0%" y1="0%" x2="100%" y2="100%">
      <stop offset="0%" stop-color="#F472B6" />
      <stop offset="100%" stop-color="#DB2777" />
    </linearGradient>

    <!-- Filters -->
    <filter id="neon-cyan" x="-50%" y="-50%" width="200%" height="200%">
      <feGaussianBlur in="SourceGraphic" stdDeviation="4" result="blur1" />
      <feGaussianBlur in="SourceGraphic" stdDeviation="12" result="blur2" />
      <feMerge>
        <feMergeNode in="blur2" />
        <feMergeNode in="blur1" />
        <feMergeNode in="SourceGraphic" />
      </feMerge>
    </filter>

    <filter id="neon-emerald" x="-50%" y="-50%" width="200%" height="200%">
      <feGaussianBlur in="SourceGraphic" stdDeviation="5" result="blur1" />
      <feGaussianBlur in="SourceGraphic" stdDeviation="15" result="blur2" />
      <feMerge>
        <feMergeNode in="blur2" />
        <feMergeNode in="blur1" />
        <feMergeNode in="SourceGraphic" />
      </feMerge>
    </filter>

    <filter id="neon-gold" x="-50%" y="-50%" width="200%" height="200%">
      <feGaussianBlur in="SourceGraphic" stdDeviation="2" result="blur1" />
      <feGaussianBlur in="SourceGraphic" stdDeviation="6" result="blur2" />
      <feMerge>
        <feMergeNode in="blur2" />
        <feMergeNode in="blur1" />
        <feMergeNode in="SourceGraphic" />
      </feMerge>
    </filter>

    <filter id="shadow" x="-10%" y="-10%" width="120%" height="120%">
      <feDropShadow dx="0" dy="6" stdDeviation="8" flood-color="#000" flood-opacity="0.6"/>
    </filter>

    <!-- Patterns -->
    <pattern id="micro-grid" width="20" height="20" patternUnits="userSpaceOnUse">
      <path d="M 20 0 L 0 0 0 20" fill="none" stroke="#1E293B" stroke-width="0.5" opacity="0.3" />
      <circle cx="20" cy="20" r="1" fill="#334155" opacity="0.4"/>
    </pattern>

    <pattern id="dot-grid" width="40" height="40" patternUnits="userSpaceOnUse">
      <circle cx="20" cy="20" r="1.5" fill="#38BDF8" opacity="0.15" />
    </pattern>
  </defs>

  <style>
    @import url('https://fonts.googleapis.com/css2?family=Plus+Jakarta+Sans:wght@400;500;600;700;800&amp;display=swap');
    svg, text { font-family: 'Plus Jakarta Sans', -apple-system, BlinkMacSystemFont, "Segoe UI", sans-serif; }
    .title { font-weight: 800; text-transform: uppercase; letter-spacing: 0; }
    .subtitle { font-weight: 600; letter-spacing: 0; }
    .body-text { font-weight: 400; }
    .mono { font-weight: 600; }
    .seat-node { cursor: pointer; }
    .seat-node circle { fill: #02040A; transition: fill 160ms ease, stroke-width 160ms ease; }
    .seat-node:hover circle { fill: #0B1325; stroke-width: 3; }
    .seat-label { font-size: 7.5px; font-weight: 800; letter-spacing: 0; fill: #94A3B8; opacity: 0.88; paint-order: stroke; stroke: #02040A; stroke-width: 3px; stroke-linejoin: round; }
    .seat-node:hover .seat-label { fill: #F8FAFC; opacity: 1; }
    .seat-node.outer circle { stroke: #38BDF8; }
    .seat-node.sovereign circle { stroke: #D4AF37; }
    .seat-node.sanctum circle { stroke: #F472B6; }
    .seat-node.justice circle { stroke: #38BDF8; }
    .seat-node.sovereign .seat-label { fill: #D4AF37; }
    .gold-text { fill: #D4AF37; }
    .pulse-slow { animation: pulse 4s infinite alternate; }
    .rotate-slow { transform-origin: 700px 230px; animation: rotate 40s linear infinite; }
    .rotate-reverse { transform-origin: 700px 230px; animation: rotate-rev 60s linear infinite; }
    @keyframes pulse { 0% { opacity: 0.6; } 100% { opacity: 1; } }
    @keyframes rotate { 0% { transform: rotate(0deg); } 100% { transform: rotate(360deg); } }
    @keyframes rotate-rev { 0% { transform: rotate(360deg); } 100% { transform: rotate(0deg); } }
  </style>

  <!-- Base Layers -->
  <rect width="1400" height="460" fill="url(#bg-grad)" />
  <rect width="1400" height="460" fill="url(#micro-grid)" />
  <rect width="1400" height="460" fill="url(#dot-grid)" />

  <!-- HUD Framing Elements -->
  <g stroke="#38BDF8" stroke-width="2" opacity="0.6">
    <!-- Top Left -->
    <path d="M 20 60 L 20 20 L 80 20" fill="none" />
    <path d="M 25 25 L 40 25 M 25 32 L 32 32" stroke-width="1" opacity="0.5"/>
    <!-- Bottom Left -->
    <path d="M 20 400 L 20 440 L 80 440" fill="none" />
    <!-- Top Right -->
    <path d="M 1380 60 L 1380 20 L 1320 20" fill="none" />
    <!-- Bottom Right -->
    <path d="M 1380 400 L 1380 440 L 1320 440" fill="none" />
  </g>
  <rect x="18" y="18" width="1364" height="424" fill="none" stroke="#1E293B" stroke-width="1" />

  <!-- ========================================== -->
  <!-- LEFT PANEL: Hero & Architecture Metrics -->
  <!-- ========================================== -->
  <g transform="translate(60, 85)">
    <!-- Tiny tag -->
    <rect x="0" y="-40" width="168" height="26" rx="13" fill="#1E293B" stroke="#334155" stroke-width="1"/>
    <text x="14" y="-23" fill="#38BDF8" font-size="11" font-weight="700" letter-spacing="0" class="mono">AI GOVERNANCE SKILL</text>

    <!-- Main Title -->
    <text x="0" y="25" fill="#FFFFFF" font-size="64" font-weight="800" letter-spacing="0" filter="url(#shadow)">Sovereign</text>
    <text x="0" y="90" fill="url(#gold-glow)" font-size="64" font-weight="800" letter-spacing="0" filter="url(#shadow)">Conclave</text>

    <path d="M 0 115 L 340 115 L 360 135 L 360 320" fill="none" stroke="#1E293B" stroke-width="2" />
    <line x1="0" y1="115" x2="100" y2="115" stroke="url(#cyan-glow)" stroke-width="3" filter="url(#neon-cyan)" />

    <!-- Metrics HUD -->
    <g transform="translate(0, 140)">
      <!-- 33 Seats -->
      <text x="0" y="15" fill="#F8FAFC" font-size="28" class="title">33</text>
      <text x="45" y="12" fill="#94A3B8" font-size="12" class="mono">OPPOSED</text>
      <text x="45" y="26" fill="#E2E8F0" font-size="14" class="title">SEATS</text>
      <rect x="140" y="10" width="160" height="4" fill="#1E293B" rx="2" />
      <rect x="140" y="10" width="160" height="4" fill="url(#cyan-glow)" rx="2" filter="url(#neon-cyan)" />

      <!-- 24 Profiles -->
      <text x="0" y="65" fill="#F8FAFC" font-size="28" class="title">24</text>
      <text x="45" y="62" fill="#94A3B8" font-size="12" class="mono">CONVENING</text>
      <text x="45" y="76" fill="#E2E8F0" font-size="14" class="title">PROFILES</text>
      <rect x="140" y="60" width="160" height="4" fill="#1E293B" rx="2" />
      <rect x="140" y="60" width="120" height="4" fill="url(#magenta-glow)" rx="2" />

      <!-- 22 Polarity Pairs -->
      <text x="0" y="115" fill="#F8FAFC" font-size="28" class="title">22</text>
      <text x="45" y="112" fill="#94A3B8" font-size="12" class="mono">POLARITY</text>
      <text x="45" y="126" fill="#E2E8F0" font-size="14" class="title">PAIRS</text>
      <rect x="140" y="110" width="160" height="4" fill="#1E293B" rx="2" />
      <rect x="140" y="110" width="140" height="4" fill="url(#gold-glow)" rx="2" />

      <!-- 6 Directives -->
      <text x="0" y="165" fill="#10B981" font-size="28" class="title" filter="url(#neon-emerald)">06</text>
      <text x="45" y="162" fill="#94A3B8" font-size="12" class="mono">ENFORCED</text>
      <text x="45" y="176" fill="#E2E8F0" font-size="14" class="title">DIRECTIVES</text>
      <rect x="140" y="160" width="160" height="4" fill="#1E293B" rx="2" />
      <rect x="140" y="160" width="160" height="4" fill="url(#emerald-glow)" rx="2" filter="url(#neon-emerald)" />

      <!-- Tiny decor -->
      <path d="M 320 10 L 330 10 M 320 60 L 325 60 M 320 110 L 328 110 M 320 160 L 330 160" stroke="#475569" stroke-width="2" />
    </g>
  </g>

  <!-- ========================================== -->
  <!-- CENTER: The Deliberation Matrix -->
  <!-- ========================================== -->
  <g transform="translate(700, 230)">

    <!-- Background Data Rings -->
    <circle cx="0" cy="0" r="210" fill="#060C18" stroke="#1E293B" stroke-width="1" />
    <circle cx="0" cy="0" r="180" fill="none" stroke="#334155" stroke-width="1" stroke-dasharray="4 8" class="rotate-slow" />
    <circle cx="0" cy="0" r="130" fill="#0B1325" stroke="#1E293B" stroke-width="2" />
    <circle cx="0" cy="0" r="80" fill="#121D36" stroke="#38BDF8" stroke-width="1" stroke-opacity="0.4" stroke-dasharray="2 4" class="rotate-reverse" />

    <!-- Hexagonal Tech Grid overlay -->
    <path d="M 0 -210 L 181.8 -105 L 181.8 105 L 0 210 L -181.8 105 L -181.8 -105 Z" fill="none" stroke="#00F2FE" stroke-width="0.5" opacity="0.1" />
    <path d="M 0 -130 L 112.5 -65 L 112.5 65 L 0 130 L -112.5 65 L -112.5 -65 Z" fill="none" stroke="#00F2FE" stroke-width="1" opacity="0.2" />

    <!-- Crosshairs & Grid Lines -->
    <line x1="-220" y1="0" x2="220" y2="0" stroke="#1E293B" stroke-width="1" />
    <line x1="0" y1="-220" x2="0" y2="220" stroke="#1E293B" stroke-width="1" />
    <path d="M -230 0 L -210 -10 L -210 10 Z" fill="#1E293B" />
    <path d="M 230 0 L 210 -10 L 210 10 Z" fill="#1E293B" />

    <!-- Polarity Pair Connections (Tension Lines) -->
    <!-- Magenta Axis -->
    <line x1="-150" y1="-60" x2="150" y2="60" stroke="url(#magenta-glow)" stroke-width="2" stroke-dasharray="8 4" opacity="0.6" filter="url(#shadow)" />
    <!-- Cyan Axis -->
    <line x1="-110" y1="120" x2="110" y2="-120" stroke="url(#cyan-glow)" stroke-width="2" stroke-dasharray="6 6" opacity="0.7" filter="url(#shadow)" />
    <!-- Gold Axis -->
    <line x1="160" y1="-80" x2="-160" y2="80" stroke="url(#gold-glow)" stroke-width="2" stroke-dasharray="4 8" opacity="0.5" filter="url(#shadow)" />

    <!-- Seat Nodes: labeled and hoverable in direct SVG views -->
    <g class="mono" stroke-width="2">
      <g class="seat-node outer" transform="translate(-150 -60)">
        <title>Georgy Zhukov - decisive force and operational reach</title>
        <circle r="6" filter="url(#neon-cyan)" />
        <text x="-12" y="-10" text-anchor="end" class="seat-label">ZHUKOV</text>
      </g>
      <g class="seat-node outer" transform="translate(-110 -140)">
        <title>John J. Pershing - logistics, training, unity of command</title>
        <circle r="6" />
        <text x="-10" y="-10" text-anchor="end" class="seat-label">PERSHING</text>
      </g>
      <g class="seat-node outer" transform="translate(0 -180)">
        <title>Vo Nguyen Giap - asymmetric protraction and political clock</title>
        <circle r="6" />
        <text x="0" y="-12" text-anchor="middle" class="seat-label">GIAP</text>
      </g>
      <g class="seat-node outer" transform="translate(110 -140)">
        <title>Stanley McChrystal - networked mission command</title>
        <circle r="6" />
        <text x="10" y="-10" class="seat-label">MCCHRYSTAL</text>
      </g>
      <g class="seat-node outer" transform="translate(160 -80)">
        <title>Yi Sun-sin - prepared defense and favorable terrain</title>
        <circle r="6" filter="url(#neon-cyan)" />
        <text x="12" y="-8" class="seat-label">YI SUN-SIN</text>
      </g>
      <g class="seat-node outer" transform="translate(150 60)">
        <title>George Washington - strategic endurance and legitimacy</title>
        <circle r="6" filter="url(#neon-cyan)" />
        <text x="12" y="4" class="seat-label">WASHINGTON</text>
      </g>
      <g class="seat-node outer" transform="translate(80 160)">
        <title>Toussaint Louverture - liberation and sovereignty from below</title>
        <circle r="6" />
        <text x="10" y="15" class="seat-label">TOUSSAINT</text>
      </g>
      <g class="seat-node outer" transform="translate(-160 80)">
        <title>Mau Mau - land, dignity, and resistance pressure</title>
        <circle r="6" filter="url(#neon-cyan)" />
        <text x="-12" y="5" text-anchor="end" class="seat-label">MAU MAU</text>
      </g>

      <g class="seat-node sovereign" transform="translate(-110 40)">
        <title>Lee Kuan Yew - scale, discipline, and pragmatic governance</title>
        <circle r="5" />
        <text x="-10" y="-8" text-anchor="end" class="seat-label">LEE KUAN YEW</text>
      </g>
      <g class="seat-node sovereign" transform="translate(-70 -100)">
        <title>Augustus Caesar - institutions, legitimacy, consolidation</title>
        <circle r="5" />
        <text x="-9" y="-9" text-anchor="end" class="seat-label">AUGUSTUS</text>
      </g>
      <g class="seat-node sovereign" transform="translate(50 -120)">
        <title>Suleiman the Magnificent - codified law and administration</title>
        <circle r="5" />
        <text x="-5" y="-11" text-anchor="end" class="seat-label">SULEIMAN</text>
      </g>
      <g class="seat-node sovereign" transform="translate(110 -120)">
        <title>David Addington - legal process and accountability channels</title>
        <circle r="5" filter="url(#neon-gold)" />
        <text x="10" y="-4" class="seat-label">ADDINGTON</text>
      </g>
      <g class="seat-node sovereign" transform="translate(120 20)">
        <title>Sejong the Great - accessible systems and capability of the governed</title>
        <circle r="5" />
        <text x="10" y="5" class="seat-label">SEJONG</text>
      </g>
      <g class="seat-node sovereign" transform="translate(50 120)">
        <title>Nelson Mandela - reconciliation, legitimacy, durable peace</title>
        <circle r="5" />
        <text x="9" y="14" class="seat-label">MANDELA</text>
      </g>
      <g class="seat-node sovereign" transform="translate(-110 120)">
        <title>Dick Cheney - concentrated command authority under worst-case threat</title>
        <circle r="5" filter="url(#neon-gold)" />
        <text x="-10" y="13" text-anchor="end" class="seat-label">CHENEY</text>
      </g>

      <g class="seat-node sanctum" transform="translate(-50 -60)">
        <title>Richard Feynman - first principles and unexplained complexity check</title>
        <circle r="4" />
        <text x="-9" y="-7" text-anchor="end" class="seat-label">FEYNMAN</text>
      </g>
      <g class="seat-node justice" transform="translate(60 -50)">
        <title>Baroness Brenda Hale - proportionality and rights check</title>
        <circle r="4" filter="url(#neon-cyan)" />
        <text x="9" y="-7" class="seat-label">HALE</text>
      </g>
      <g class="seat-node sanctum" transform="translate(70 40)">
        <title>John von Neumann - formal modeling and game theory</title>
        <circle r="4" />
        <text x="9" y="5" class="seat-label">VON NEUMANN</text>
      </g>
      <g class="seat-node sanctum" transform="translate(-30 70)">
        <title>J. Robert Oppenheimer - capability, consequence, dual-use control</title>
        <circle r="4" />
        <text x="-9" y="12" text-anchor="end" class="seat-label">OPPENHEIMER</text>
      </g>
    </g>

    <!-- Center: MARSHALL Verifier Shield -->
    <!-- Pulse ring -->
    <circle cx="0" cy="0" r="32" fill="none" stroke="#10B981" stroke-width="1" class="pulse-slow" filter="url(#neon-emerald)" opacity="0.7"/>
    <!-- Solid core backing -->
    <circle cx="0" cy="0" r="26" fill="#02040A" stroke="#059669" stroke-width="2" filter="url(#shadow)" />
    <!-- Shield Graphic -->
    <path d="M 0 -14 C -8 -14 -12 -18 -12 -18 C -12 -6 -8 6 0 14 C 8 6 12 -6 12 -18 C 12 -18 8 -14 0 -14 Z" fill="url(#emerald-glow)" filter="url(#neon-emerald)" />
    <!-- Core dot -->
    <circle cx="0" cy="-2" r="2" fill="#FFFFFF" />
    <!-- Marshall Label -->
    <rect x="-35" y="18" width="70" height="14" rx="2" fill="#064E3B" stroke="#10B981" stroke-width="1" />
    <text x="0" y="27" fill="#D1FAE5" font-size="8" font-weight="700" class="mono" text-anchor="middle" letter-spacing="0">MARSHALL</text>

  </g>

  <!-- Top Tech Bar -->
  <path d="M 300 20 L 320 40 L 1080 40 L 1100 20" fill="#0F172A" stroke="#38BDF8" stroke-width="1" opacity="0.82"/>
  <text x="700" y="33" fill="#38BDF8" font-size="10" text-anchor="middle" class="mono" letter-spacing="0">SYS.OP: CONCLAVE // STATUS: VERIFIED // DIRECTIVES: ENFORCED</text>

  <!-- ========================================== -->
  <!-- RIGHT PANEL: Data Flow & Verdict Output -->
  <!-- ========================================== -->

  <!-- Flow Lines from Matrix to Right Panel -->
  <g fill="none" stroke-width="1.5" opacity="0.6">
    <!-- Top data line -->
    <path d="M 910 130 L 980 130 L 1000 100 L 1080 100" stroke="#38BDF8" stroke-dasharray="4 4" />
    <!-- Mid data line -->
    <path d="M 940 230 L 1020 230" stroke="#10B981" />
    <!-- Bottom data line -->
    <path d="M 910 330 L 980 330 L 1000 360 L 1080 360" stroke="#F5D37A" stroke-dasharray="4 4" />
  </g>

  <!-- Animated data packets along the middle line -->
  <circle cx="950" cy="230" r="2" fill="#10B981" filter="url(#neon-emerald)" class="pulse-slow" />
  <circle cx="990" cy="230" r="2" fill="#10B981" filter="url(#neon-emerald)" class="pulse-slow" style="animation-delay: 1s;" />

  <g transform="translate(1080, 70)" filter="url(#shadow)">

    <!-- Section 1: Frozen Evidence Ledger -->
    <text x="0" y="0" fill="#38BDF8" font-size="12" font-weight="700" class="title">I. FROZEN EVIDENCE LEDGER</text>
    <rect x="0" y="10" width="280" height="90" rx="4" fill="#0F172A" stroke="#334155" stroke-width="1" />

    <!-- Ledger Items -->
    <g transform="translate(15, 25)" class="mono" font-size="10">
      <rect x="0" y="0" width="26" height="14" rx="2" fill="#1E293B" stroke="#475569" stroke-width="1" />
      <text x="13" y="10" fill="#E2E8F0" text-anchor="middle">E-1</text>
      <text x="35" y="10" fill="#94A3B8">Telemetry log verified</text>

      <rect x="0" y="24" width="26" height="14" rx="2" fill="#1E293B" stroke="#475569" stroke-width="1" />
      <text x="13" y="34" fill="#E2E8F0" text-anchor="middle">E-2</text>
      <text x="35" y="34" fill="#94A3B8">Architecture document</text>

      <rect x="0" y="48" width="26" height="14" rx="2" fill="#1E293B" stroke="#475569" stroke-width="1" />
      <text x="13" y="58" fill="#E2E8F0" text-anchor="middle">E-3</text>
      <text x="35" y="58" fill="#94A3B8">Performance bottleneck</text>
    </g>

    <!-- Vertical Connector -->
    <line x1="140" y1="100" x2="140" y2="130" stroke="#334155" stroke-width="2" />
    <polygon points="137,125 143,125 140,132" fill="#334155" />

    <!-- Section 2: Synthesis / Verification -->
    <text x="0" y="150" fill="#10B981" font-size="12" font-weight="700" class="title">II. MARSHALL VERIFICATION</text>
    <rect x="0" y="160" width="280" height="50" rx="4" fill="#064E3B" fill-opacity="0.2" stroke="#10B981" stroke-width="1" />
    <path d="M 15 185 L 20 190 L 30 175" fill="none" stroke="#10B981" stroke-width="2" stroke-linecap="round" filter="url(#neon-emerald)"/>
    <text x="45" y="182" fill="#D1FAE5" font-size="11" class="mono">CLAIMS: [SUPPORTED]</text>
    <text x="45" y="196" fill="#A7F3D0" font-size="10" class="mono">DIRECTIVE D-4: PASS</text>

    <!-- Vertical Connector -->
    <line x1="140" y1="210" x2="140" y2="240" stroke="#334155" stroke-width="2" />
    <polygon points="137,235 143,235 140,242" fill="#334155" />

    <!-- Section 3: Final Verdict -->
    <text x="0" y="260" fill="#F5D37A" font-size="12" font-weight="700" class="title">III. SYNTHESIS VERDICT</text>
    <rect x="0" y="270" width="280" height="70" rx="4" fill="#1E1303" stroke="#F5D37A" stroke-width="1.5" />

    <!-- Document Icon -->
    <path d="M 15 285 L 30 285 L 30 325 L 15 325 Z" fill="none" stroke="#F5D37A" stroke-width="1" />
    <path d="M 20 290 L 25 290 M 20 295 L 25 295 M 20 300 L 25 300" stroke="#F5D37A" stroke-width="1" />

    <text x="45" y="292" fill="#E7C76A" font-size="12" font-weight="700" class="title">THE CONCLAVE ADVISES:</text>
    <text x="45" y="308" fill="#D4AF37" font-size="10" class="body-text">Execute proposed architecture split.</text>

    <!-- Human Decides Badge -->
    <rect x="155" y="315" width="115" height="18" rx="9" fill="#0F172A" stroke="#F5D37A" stroke-width="1" />
    <text x="212" y="327" fill="#F5D37A" font-size="8" font-weight="700" text-anchor="middle" class="mono">HUMAN DECIDES</text>

  </g>

  <!-- Decorative Corner Accents -->
  <g fill="#38BDF8" opacity="0.8">
    <circle cx="20" cy="20" r="2" />
    <circle cx="1380" cy="20" r="2" />
    <circle cx="20" cy="440" r="2" />
    <circle cx="1380" cy="440" r="2" />
  </g>
</svg>
